<svg xmlns="http://www.w3.org/2000/svg" viewBox="0 0 128 128">
  <defs>
    <linearGradient id="g" x1="0" y1="0" x2="1" y2="1">
      <stop offset="0" stop-color="#bb0505"/>
      <stop offset="1" stop-color="#171717"/>
    </linearGradient>
  </defs>
  <rect width="128" height="128" rx="28" fill="#171717"/>
  <circle cx="64" cy="64" r="46" fill="url(#g)" opacity="0.25"/>
  <path
    fill="#EDEDED"
    d="M88 86c5 0 10-4 10-10 0-5-4-9-9-10-2-12-12-22-26-22-6 0-12 2-16 6-10 2-18 10-18 21 0 6 2 11 6 15-1 2-1 4-1 6 0 7 6 13 13 13h27c7 0 14-7 14-19zm-44 5c-4-2-7-6-7-11 0-7 5-13 12-14 1-3 4-6 7-7 2-1 5-2 8-2 10 0 18 7 18 16 0 1 0 2-1 3 5 0 9 4 9 9s-4 9-9 9H55c-5 0-9-1-11-2z"
  />
  <path
    fill="#bb0505"
    d="M68 36c10 2 16 8 20 16-5-2-10-2-14-1 3-5 1-9-6-15z"
  />
</svg>
